# xmcd
#
# Track frame offsets:
#	150
#	13388
#	24880
#	41349
#	53272
#	66251
#	84399
#	97621
#	117663
#	138203
#	154200
#	182591
#	197080
#	213426
#	227919
#
# Disc length: 3962 seconds
#
# Revision: 1
# Processed by: cddbd v1.5.2PL0 Copyright (c) Steve Scherf et al.
# Submitted via: audiograbber 1.83.01
#
DISCID=bc0f780f
DTITLE=Leo Ferre - Olympia 73
DYEAR=1972
DGENRE=Chanson francaise
TTITLE0=Preface
TTITLE1=Les poetes
TTITLE2=Ton style
TTITLE3=La damnation
TTITLE4=Pepee
TTITLE5=Les etrangers
TTITLE6=Mister the wind
TTITLE7=La memoire et la mer
TTITLE8=Night and day
TTITLE9=Comme a Ostende
TTITLE10=Ne chantez pas la mort
TTITLE11=Richard
TTITLE12=La solitudee
TTITLE13=Ni dieu ni maitre
TTITLE14=Il n'y a plus rien
EXTD=
EXTT0=
EXTT1=
EXTT2=
EXTT3=
EXTT4=
EXTT5=
EXTT6=
EXTT7=
EXTT8=
EXTT9=
EXTT10=
EXTT11=
EXTT12=
EXTT13=
EXTT14=
PLAYORDER=
